<svg xmlns="http://www.w3.org/2000/svg" width="1200" height="630" viewBox="0 0 1200 630" role="img" aria-label="Abstract promo image for reusable Tenant Configuration Management monitor parameters">
  <defs>
    <linearGradient id="bg" x1="0" y1="0" x2="1" y2="1">
      <stop offset="0" stop-color="#0f172a"/>
      <stop offset="0.55" stop-color="#123c69"/>
      <stop offset="1" stop-color="#0e7490"/>
    </linearGradient>
    <linearGradient id="panel" x1="0" y1="0" x2="1" y2="1">
      <stop offset="0" stop-color="#ffffff" stop-opacity="0.98"/>
      <stop offset="1" stop-color="#dbeafe" stop-opacity="0.92"/>
    </linearGradient>
    <linearGradient id="accent" x1="0" y1="0" x2="1" y2="0">
      <stop offset="0" stop-color="#38bdf8"/>
      <stop offset="1" stop-color="#22c55e"/>
    </linearGradient>
    <filter id="shadow" x="-20%" y="-20%" width="140%" height="140%">
      <feDropShadow dx="0" dy="18" stdDeviation="20" flood-color="#020617" flood-opacity="0.32"/>
    </filter>
    <pattern id="grid" width="42" height="42" patternUnits="userSpaceOnUse">
      <path d="M 42 0 L 0 0 0 42" fill="none" stroke="#ffffff" stroke-opacity="0.08" stroke-width="1"/>
    </pattern>
  </defs>

  <rect width="1200" height="630" fill="url(#bg)"/>
  <rect width="1200" height="630" fill="url(#grid)"/>
  <circle cx="1028" cy="88" r="194" fill="#38bdf8" opacity="0.16"/>
  <circle cx="116" cy="552" r="176" fill="#22c55e" opacity="0.14"/>
  <circle cx="224" cy="124" r="72" fill="#ffffff" opacity="0.08"/>

  <g transform="translate(72 62)">
    <rect x="0" y="0" width="1056" height="506" rx="34" fill="#ffffff" opacity="0.08" stroke="#ffffff" stroke-opacity="0.16"/>

    <g transform="translate(90 86)" filter="url(#shadow)">
      <rect x="0" y="0" width="258" height="350" rx="28" fill="url(#panel)"/>
      <rect x="0" y="0" width="258" height="18" rx="9" fill="url(#accent)"/>
      <circle cx="58" cy="72" r="21" fill="#38bdf8"/>
      <circle cx="128" cy="72" r="21" fill="#60a5fa"/>
      <circle cx="198" cy="72" r="21" fill="#22c55e"/>
      <rect x="42" y="124" width="174" height="18" rx="9" fill="#94a3b8" opacity="0.75"/>
      <rect x="42" y="162" width="136" height="18" rx="9" fill="#cbd5e1"/>
      <rect x="42" y="200" width="154" height="18" rx="9" fill="#cbd5e1"/>
      <rect x="42" y="246" width="174" height="56" rx="16" fill="#e0f2fe" stroke="#38bdf8" stroke-width="3"/>
      <circle cx="86" cy="274" r="14" fill="#0ea5e9"/>
      <circle cx="129" cy="274" r="14" fill="#22c55e"/>
      <circle cx="172" cy="274" r="14" fill="#0f766e"/>
    </g>

    <g transform="translate(412 185)">
      <path d="M0 72 H248" stroke="#bae6fd" stroke-width="8" stroke-linecap="round"/>
      <path d="M230 38 L288 72 L230 106" fill="none" stroke="#bae6fd" stroke-width="8" stroke-linecap="round" stroke-linejoin="round"/>
      <circle cx="60" cy="72" r="38" fill="#082f49" stroke="#38bdf8" stroke-width="4"/>
      <circle cx="144" cy="72" r="38" fill="#082f49" stroke="#60a5fa" stroke-width="4"/>
      <circle cx="228" cy="72" r="38" fill="#082f49" stroke="#22c55e" stroke-width="4"/>
      <path d="M45 72 h30 M60 57 v30" stroke="#e0f2fe" stroke-width="6" stroke-linecap="round"/>
      <path d="M129 72 h30 M144 57 v30" stroke="#e0f2fe" stroke-width="6" stroke-linecap="round"/>
      <path d="M213 72 h30 M228 57 v30" stroke="#e0f2fe" stroke-width="6" stroke-linecap="round"/>
    </g>

    <g transform="translate(752 86)" filter="url(#shadow)">
      <rect x="0" y="0" width="214" height="350" rx="28" fill="#f8fafc"/>
      <rect x="0" y="0" width="214" height="18" rx="9" fill="url(#accent)"/>
      <circle cx="107" cy="83" r="42" fill="#dbeafe" stroke="#38bdf8" stroke-width="5"/>
      <path d="M84 84 h46 M107 61 v46" stroke="#0f766e" stroke-width="9" stroke-linecap="round"/>
      <path d="M55 164 C86 126 128 126 159 164" fill="none" stroke="#60a5fa" stroke-width="8" stroke-linecap="round"/>
      <path d="M55 214 C86 176 128 176 159 214" fill="none" stroke="#22c55e" stroke-width="8" stroke-linecap="round"/>
      <path d="M55 264 C86 226 128 226 159 264" fill="none" stroke="#0ea5e9" stroke-width="8" stroke-linecap="round"/>
      <circle cx="55" cy="164" r="12" fill="#60a5fa"/>
      <circle cx="159" cy="164" r="12" fill="#60a5fa"/>
      <circle cx="55" cy="214" r="12" fill="#22c55e"/>
      <circle cx="159" cy="214" r="12" fill="#22c55e"/>
      <circle cx="55" cy="264" r="12" fill="#0ea5e9"/>
      <circle cx="159" cy="264" r="12" fill="#0ea5e9"/>
    </g>

    <g transform="translate(420 420)">
      <rect x="0" y="0" width="292" height="28" rx="14" fill="#ffffff" opacity="0.2"/>
      <circle cx="42" cy="14" r="9" fill="#38bdf8"/>
      <circle cx="92" cy="14" r="9" fill="#60a5fa"/>
      <circle cx="142" cy="14" r="9" fill="#22c55e"/>
      <circle cx="192" cy="14" r="9" fill="#60a5fa"/>
      <circle cx="242" cy="14" r="9" fill="#38bdf8"/>
    </g>
  </g>
</svg>
